<svg width="421" height="150" viewBox="0 0 421 150" fill="none" xmlns="http://www.w3.org/2000/svg">
<g opacity="0.1">
<path d="M124.276 6.30992L143.184 51.66L162.163 6.30992H167.937V57.6949H163.606V35.3199L163.958 12.3801L144.874 57.6949H141.529L122.515 12.5566L122.867 35.1787V57.6949H118.536V6.30992H124.276Z" fill="white"/>
<path d="M179.784 38.0373C179.784 34.367 180.488 31.0613 181.896 28.1203C183.328 25.1793 185.335 22.8971 187.917 21.2737C190.523 19.6267 193.469 18.8033 196.755 18.8033C201.826 18.8033 205.933 20.5914 209.079 24.1676C212.224 27.7203 213.797 32.4377 213.797 38.3197V39.202C213.797 42.8959 213.081 46.2251 211.649 49.1896C210.241 52.1306 208.246 54.401 205.664 56.0009C203.081 57.6008 200.135 58.4008 196.826 58.4008C191.779 58.4008 187.671 56.6244 184.502 53.0717C181.356 49.4954 179.784 44.7663 179.784 38.8843V38.0373ZM184.009 39.202C184.009 43.7664 185.183 47.5191 187.53 50.4601C189.901 53.3776 192.999 54.8363 196.826 54.8363C200.628 54.8363 203.703 53.3776 206.051 50.4601C208.422 47.5191 209.607 43.6488 209.607 38.8491V38.0373C209.607 35.1199 209.067 32.4495 207.987 30.0261C206.908 27.6027 205.394 25.7322 203.445 24.4147C201.497 23.0736 199.267 22.403 196.755 22.403C192.999 22.403 189.936 23.8853 187.565 26.8498C185.194 29.7908 184.009 33.6494 184.009 38.4256V39.202Z" fill="white"/>
<path d="M223.003 38.2491C223.003 32.3201 224.317 27.6027 226.946 24.097C229.599 20.5679 233.19 18.8033 237.721 18.8033C242.862 18.8033 246.782 20.8384 249.481 24.9088V3.48657H253.671V57.6949H249.728L249.552 52.6129C246.852 56.4715 242.885 58.4008 237.65 58.4008C233.261 58.4008 229.716 56.6362 227.017 53.107C224.341 49.5543 223.003 44.7663 223.003 38.7432V38.2491ZM227.263 38.9902C227.263 43.8605 228.237 47.7073 230.186 50.5307C232.134 53.3305 234.881 54.7304 238.425 54.7304C243.613 54.7304 247.298 52.4364 249.481 47.8485V29.9202C247.298 24.9558 243.636 22.4736 238.496 22.4736C234.951 22.4736 232.193 23.8735 230.221 26.6734C228.249 29.4496 227.263 33.5553 227.263 38.9902Z" fill="white"/>
<path d="M290.975 57.6949C290.553 56.495 290.283 54.7186 290.165 52.3659C288.686 54.2951 286.797 55.7892 284.496 56.8479C282.219 57.8832 279.802 58.4008 277.243 58.4008C273.581 58.4008 270.612 57.3773 268.335 55.3304C266.081 53.2834 264.954 50.6954 264.954 47.5662C264.954 43.8487 266.492 40.9077 269.567 38.7432C272.666 36.5786 276.973 35.4963 282.489 35.4963H290.13V31.1554C290.13 28.4262 289.285 26.2851 287.595 24.7323C285.928 23.1559 283.487 22.3677 280.271 22.3677C277.337 22.3677 274.907 23.1206 272.982 24.6264C271.058 26.1322 270.095 27.9439 270.095 30.0614L265.87 30.0261C265.87 26.991 267.278 24.3676 270.095 22.156C272.912 19.9208 276.374 18.8033 280.482 18.8033C284.731 18.8033 288.076 19.8738 290.517 22.0148C292.982 24.1323 294.25 27.0969 294.32 30.9084V48.9778C294.32 52.6717 294.708 55.4362 295.482 57.2714V57.6949H290.975ZM277.736 54.6598C280.553 54.6598 283.064 53.9775 285.271 52.6129C287.501 51.2483 289.121 49.4249 290.13 47.1427V38.7432H282.595C278.393 38.7902 275.107 39.5667 272.736 41.0724C270.365 42.5547 269.18 44.6016 269.18 47.2132C269.18 49.3543 269.966 51.1306 271.539 52.5423C273.135 53.954 275.201 54.6598 277.736 54.6598Z" fill="white"/>
<path d="M314.658 53.5232C314.658 44.3944 316.685 37.1312 320.739 31.7336C324.829 26.2997 330.366 23.5828 337.351 23.5828C345.277 23.5828 351.321 26.7163 355.483 32.9834V0H361.944V83.4636H355.863L355.592 75.6389C351.43 81.5799 345.313 84.5504 337.242 84.5504C330.475 84.5504 325.009 81.8335 320.847 76.3997C316.721 70.9296 314.658 63.5577 314.658 54.284V53.5232ZM321.227 54.6643C321.227 62.163 322.729 68.0859 325.733 72.433C328.737 76.7438 332.972 78.8992 338.437 78.8992C346.435 78.8992 352.118 75.3672 355.483 68.3033V40.6994C352.118 33.0558 346.472 29.234 338.545 29.234C333.08 29.234 328.828 31.3894 325.788 35.7003C322.747 39.9749 321.227 46.2962 321.227 54.6643Z" fill="white"/>
<path d="M410.565 83.4636C409.913 81.6161 409.497 78.8811 409.316 75.2586C407.036 78.2291 404.122 80.5294 400.576 82.1595C397.065 83.7534 393.337 84.5504 389.392 84.5504C383.746 84.5504 379.168 82.9746 375.657 79.823C372.183 76.6714 370.445 72.6865 370.445 67.8686C370.445 62.1449 372.816 57.6167 377.557 54.284C382.335 50.9512 388.976 49.2848 397.481 49.2848H409.262V42.6012C409.262 38.3991 407.959 35.1026 405.353 32.7117C402.783 30.2846 399.019 29.071 394.061 29.071C389.537 29.071 385.791 30.2302 382.823 32.5486C379.855 34.8671 378.372 37.6564 378.372 40.9167L371.857 40.8624C371.857 36.1893 374.028 32.1502 378.372 28.745C382.715 25.3035 388.053 23.5828 394.387 23.5828C400.937 23.5828 406.095 25.2311 409.859 28.5276C413.659 31.7879 415.613 36.3523 415.722 42.2209V70.0421C415.722 75.7295 416.319 79.986 417.514 82.8116V83.4636H410.565ZM390.152 78.7906C394.495 78.7906 398.368 77.74 401.77 75.6389C405.208 73.5378 407.705 70.7304 409.262 67.2165V54.284H397.644C391.166 54.3564 386.099 55.5519 382.443 57.8703C378.788 60.1525 376.96 63.3041 376.96 67.3252C376.96 70.6217 378.172 73.3567 380.597 75.5303C383.058 77.7038 386.243 78.7906 390.152 78.7906Z" fill="white"/>
<path d="M141.282 74.6819L157.932 126.322L174.53 74.6819H198.199V148.905H180.166V131.572L181.908 96.0924L163.875 148.905H151.989L133.905 96.0414L135.647 131.572V148.905H117.665V74.6819H141.282Z" fill="white"/>
<path d="M236.653 142.94C232.998 147.596 228.063 149.924 221.847 149.924C215.768 149.924 211.157 148.174 208.015 144.674C204.907 141.139 203.353 136.075 203.353 129.482V93.7474H220.617V129.584C220.617 134.308 222.923 136.67 227.533 136.67C231.495 136.67 234.313 135.26 235.987 132.439V93.7474H253.354V148.905H237.165L236.653 142.94Z" fill="white"/>
<path d="M275.823 148.905H258.507V70.6038H275.823V148.905Z" fill="white"/>
<path d="M298.139 99.6608C301.828 95.0388 306.541 92.7279 312.279 92.7279C318.392 92.7279 323.003 94.5291 326.111 98.1314C329.219 101.734 330.807 107.052 330.876 114.087V148.905H313.56V114.495C313.56 111.572 312.962 109.431 311.767 108.072C310.571 106.679 308.539 105.982 305.67 105.982C302.118 105.982 299.608 107.103 298.139 109.346V148.905H280.875V70.6038H298.139V99.6608Z" fill="white"/>
<path d="M362.054 149.924C353.55 149.924 346.668 147.409 341.409 142.38C336.149 137.316 333.519 130.74 333.519 122.651V121.224C333.519 115.583 334.561 110.604 336.644 106.288C338.762 101.972 341.835 98.6412 345.866 96.2963C349.896 93.9173 354.677 92.7279 360.21 92.7279C367.997 92.7279 374.145 95.1408 378.653 99.9666C383.161 104.758 385.416 111.453 385.416 120.052V126.73H351.091C351.706 129.822 353.055 132.252 355.138 134.019C357.222 135.787 359.92 136.67 363.233 136.67C368.697 136.67 372.966 134.767 376.04 130.961L383.93 140.239C381.778 143.195 378.721 145.557 374.76 147.324C370.832 149.058 366.597 149.924 362.054 149.924ZM360.108 105.982C355.053 105.982 352.047 109.312 351.091 115.973H368.509V114.648C368.578 111.895 367.878 109.771 366.409 108.276C364.94 106.747 362.84 105.982 360.108 105.982Z" fill="white"/>
<path d="M420.693 109.295L415.006 108.888C409.576 108.888 406.092 110.587 404.555 113.985V148.905H387.291V93.7474H403.479L404.043 100.833C406.946 95.4296 410.993 92.7279 416.185 92.7279C418.029 92.7279 419.634 92.9318 421 93.3396L420.693 109.295Z" fill="white"/>
<path d="M11.8218 37.8276C16.5505 33.0313 21.2793 28.7079 23.3734 29.5861C26.7511 30.9372 23.3734 36.5441 21.3468 39.8542C19.658 42.6915 2.0266 66.1324 2.0266 82.4803C2.0266 91.1271 5.26915 98.2877 11.0787 102.611C16.1452 106.394 22.833 107.543 28.9128 105.719C36.1409 103.624 42.0856 96.2611 49.584 87.0063C57.758 76.9409 68.7016 63.768 77.1457 63.768C88.1569 63.768 88.292 70.5909 89.0351 75.8601C63.5 80.1835 52.6915 100.652 52.6915 112.136C52.6915 123.62 62.4191 133.01 74.376 133.01C85.3872 133.01 103.356 124.025 106.058 91.8026H122.677V74.9143H105.991C104.978 63.768 98.6276 46.542 78.767 46.542C63.5675 46.542 50.5298 59.4446 45.3957 65.7271C41.4776 70.6585 31.4798 82.4803 29.9261 84.1015C28.2372 86.1281 25.3324 89.776 22.4277 89.776C19.3878 89.776 17.5638 84.1691 19.9957 76.8058C22.3601 69.4425 29.4532 57.4856 32.4931 53.0271C37.7622 45.326 41.275 40.0569 41.275 30.8696C41.275 16.2106 30.1963 11.5494 24.3191 11.5494C15.4021 11.5494 7.63351 18.3048 5.94468 19.9936C3.51277 22.4255 1.48617 24.4521 0 26.276L11.8218 37.8276ZM74.5787 116.595C72.4846 116.595 69.5798 114.838 69.5798 111.731C69.5798 107.678 74.5111 96.8691 88.9675 93.0861C86.9409 111.258 79.3074 116.595 74.5787 116.595Z" fill="white"/>
</g>
</svg>
